# xmcd
#
# Track frame offsets: 
#        150
#        20282
#        40757
#        63995
#        85597
#        108505
#        129557
#        149707
#        173375
#        181920
#        193517
#        216845
#        238797
#        257655
#
# Disc length: 3710 seconds
#
# Revision: 1
# Processed by: cddbd v1.5.2PL0 Copyright (c) Steve Scherf et al.
# Submitted via: ExactAudioCopy v1.0b2
#
DISCID=bc0e7c0e
DTITLE=楊乃文 Faith - ONE
DYEAR=1997
DGENRE=Pop
TTITLE0=星星堆滿天 STARS
TTITLE1=你就是吃定我 YOU GOT ME
TTITLE2=LET IT RAIN
TTITLE3=花與蟲 BUGS and FLOWERS
TTITLE4=不要說出去 DON'T SPEAK
TTITLE5=一個人 ONE
TTITLE6=你懂嗎 DO OU KNOW?
TTITLE7=明天 WILL WE REMEMBER?
TTITLE8=SONG 9
TTITLE9=你好美 SO BEAUTIFUL
TTITLE10=不送花的人NOT DAVID
TTITLE11=不要說出去 (LIVE) DON'T SPEAK
TTITLE12=星星堆滿天 (LIVE) STARS
TTITLE13=你就是吃定我 (DRUMLESS) YOU GOT ME
EXTD=
EXTT0=
EXTT1=
EXTT2=
EXTT3=
EXTT4=
EXTT5=
EXTT6=
EXTT7=
EXTT8=
EXTT9=
EXTT10=
EXTT11=
EXTT12=
EXTT13=
PLAYORDER=
